<?xml version="1.0" encoding="iso-8859-1"?><!-- Generator: Adobe Illustrator 19.2.1, SVG Export Plug-In . SVG Version: 6.00 Build 0)  --><svg xmlns="http://www.w3.org/2000/svg" xmlns:xlink="http://www.w3.org/1999/xlink" version="1.1" x="0px" y="0px" viewBox="0 0 48 48" style="enable-background:new 0 0 48 48;" xml:space="preserve" width="500" height="500">
<metadata><?xpacket begin="﻿" ?>
<x:xmpmeta xmlns:x="adobe:ns:meta/" x:xmptk="Adobe XMP Core 5.6-c111 79.158366, 2015/09/25-01:12:00        ">
   <rdf:RDF xmlns:rdf="http://www.w3.org/1999/02/22-rdf-syntax-ns#">
      <rdf:Description rdf:about=""/>
   </rdf:RDF>
</x:xmpmeta>
                                                                                                    
                                                                                                    
                                                                                                    
                                                                                                    
                                                                                                    
                                                                                                    
                                                                                                    
                                                                                                    
                                                                                                    
                                                                                                    
                                                                                                    
                                                                                                    
                                                                                                    
                                                                                                    
                                                                                                    
                                                                                                    
                                                                                                    
                                                                                                    
                                                                                                    
                                                                                                    
                           
<?xpacket end="w"?></metadata>
<circle style="fill:#4CAF50;" cx="24" cy="24" r="19"/>
<g>
	<path style="fill:#FFFFFF;" d="M30,20c2.206,0,4,1.794,4,4s-1.794,4-4,4s-4-1.794-4-4S27.794,20,30,20 M30,16c-4.418,0-8,3.582-8,8   s3.582,8,8,8s8-3.582,8-8S34.418,16,30,16L30,16z"/>
</g>
<g>
	<path style="fill:#FFFFFF;" d="M18,20c2.206,0,4,1.794,4,4s-1.794,4-4,4s-4-1.794-4-4S15.794,20,18,20 M18,16c-4.418,0-8,3.582-8,8   s3.582,8,8,8s8-3.582,8-8S22.418,16,18,16L18,16z"/>
</g>
</svg>