<?xml version="1.0" encoding="utf-8"?><!-- Generator: Adobe Illustrator 19.1.1, SVG Export Plug-In . SVG Version: 6.00 Build 0)  --><svg xmlns="http://www.w3.org/2000/svg" xmlns:xlink="http://www.w3.org/1999/xlink" version="1.1" x="0px" y="0px" viewBox="0 0 48 48" enable-background="new 0 0 48 48" xml:space="preserve" width="500" height="500">
<path fill="#8D6E63" d="M31,21c-1.2-2.8-1.3-3.2-2-5.9c-0.1,0-0.2-0.1-0.2-0.1c-1.4-0.6-2.9-1-4.8-1s-3.4,0.4-4.8,1  c-0.1,0-0.2,0.1-0.2,0.1c-0.8,2.7-0.8,3.1-2,5.9c-6.6,0-6,7.8-6,10c0,5,9.7,12,13,12s13-7,13-12C37,28.8,37.6,21,31,21z"/>
<path fill="#212121" d="M30,25c1.1,0,2,0.9,2,2s-0.9,2-2,2s-1-0.9-1-2S28.9,25,30,25z M16,27c0,1.1,0.9,2,2,2s1-0.9,1-2s0.1-2-1-2  S16,25.9,16,27z"/>
<path fill="#212121" d="M24,30l7,3c0,0-4.6,4-7,4s-7-4-7-4L24,30z"/>
<polygon fill="#FFFFFF" points="26.5,30 24.5,30 23.5,30 21.5,30 23,34 24,31.3 25,34 "/>
<path fill="#EF5350" d="M24,35c-1.2,0-2,0.6-2.5,1.2c0.8,0.5,1.6,0.8,2.5,0.8s1.7-0.4,2.5-0.8C26,35.6,25.2,35,24,35z"/>
<path fill="#6D4C41" d="M32,33c-2,0.8-8-3-8-3s-6,3.8-8,3c0-2.5,2-4,2-4c1.6-1,0-4,0-4s2.4-3,6-3s6,3,6,3s-1.6,3,0,4  C30,29,32,30.5,32,33z M32,15c0.3-3.8,2.5-8.7,5-10c-6.3,1.8-7.9,7.8-8,10.1c-0.1,2.4,2,5.9,2,5.9c1.6,0,2.7,0.5,3.6,1.4  C33.7,21,31.8,17.9,32,15z M16,15c-0.3-3.8-2.5-8.7-5-10c6.3,1.8,7.9,7.8,8,10.1c0.1,2.4-2,5.9-2,5.9c-1.6,0-2.7,0.5-3.6,1.4  C14.3,21,16.2,17.9,16,15z"/>
<path fill="#EF9A9A" d="M32,33c0,0-5.5,8-8,8s-8-8-8-8c0.3,0.1,0.7,0.1,1.1,0.1c0.6,0.5,4.7,3.9,6.9,3.9s6.3-3.4,6.9-3.9  C31.3,33.1,31.7,33.1,32,33z M43,22c0.3-5.7-4.9-12.6-6-14s0-3,0-3c-2.5,1.3-4.8,6.3-5,10c-0.2,2.6,1.3,5.4,2.3,6.9  c2.7,1.8,2.8,6,2.7,8.2c0,0.3,0.2,0.9,1,0.9c2.4,1.2,4-3,4-3s-2-2.8-2-4S42.7,27.7,43,22z M13.7,21.9c0.9-1.5,2.4-4.3,2.3-6.9  c-0.3-3.8-2.5-8.7-5-10c0,0,1.1,1.6,0,3s-6.3,8.3-6,14s3,0.8,3,2s-2,4-2,4s1.6,4.2,4,3c0.8,0,1-0.6,1-0.9  C11,27.9,11.1,23.8,13.7,21.9z M27,28v-2c0-1.1-0.9-2-2-2h-2c-1.1,0-2,0.9-2,2v2c0,2.1,1.1,3,3,3l0,0C26,31,27,30.1,27,28z"/>
<path fill="#5D4037" d="M27,27c0,2.1-3,2-3,2s1.4-3,3-3C27,26,27,26.4,27,27z M21,27c0,2,3,2,3,2s-1.5-3-3-3C21,26,21,26.4,21,27z"/>
<path fill="#C15656" d="M34.2,21.9C33.7,21.1,33,20,33,19.5c0-0.8,0.7-1.5,1.5-1.5s1.5,0.7,1.5,1.5c0,0.7-0.6,2.4-0.9,3.2  C34.9,22.4,34.6,22.1,34.2,21.9z M13.8,21.9c0.6-0.8,1.2-1.9,1.2-2.4c0-0.8-0.7-1.5-1.5-1.5S12,18.7,12,19.5c0,0.7,0.6,2.4,0.9,3.2  C13.1,22.4,13.4,22.1,13.8,21.9z"/>
</svg>