<?xml version="1.0" encoding="utf-8"?><!-- Generator: Adobe Illustrator 15.0.0, SVG Export Plug-In . SVG Version: 6.00 Build 0)  --><!DOCTYPE svg PUBLIC "-//W3C//DTD SVG 1.1//EN" "http://www.w3.org/Graphics/SVG/1.1/DTD/svg11.dtd"><svg xmlns="http://www.w3.org/2000/svg" xmlns:xlink="http://www.w3.org/1999/xlink" version="1.1" x="0px" y="0px" width="500" height="500" viewBox="0 0 48 48" enable-background="new 0 0 48 48" xml:space="preserve">
<g>
	<path fill="#8D6E63" d="M36,36.01c0,2.478-1.403,3.578-4.632,3.578c-2.666,0-4.911-0.963-7.719-0.963   c-2.806,0-4.491,1.375-7.579,1.375C13.124,40,12,37.935,12,36.422c0-3.028,2.246-3.44,4.771-6.057   C19.299,27.752,20.702,25,23.369,25c3.088,0,4.071,3.303,6.316,5.918C31.649,33.394,36,33.118,36,36.01z"/>
	<path fill="#8D6E63" d="M30.016,21C33.338,21,35,16.814,35,12.918S32.646,7,31.123,7C27.8,7,26,10.608,26,13.062   C26,15.371,26.969,21,30.016,21z"/>
	<path fill="#8D6E63" d="M18.882,20C22.237,20,23,15.946,23,12.172C23,9.375,21.017,7,19.033,7C15.525,7,14,10.354,14,13.15   C14,15.388,15.983,20,18.882,20z"/>
	<path fill="#8D6E63" d="M15,24.024C15,21.511,12.787,19,10.722,19C8.656,19,6,22.069,6,25.418C6,27.651,7.771,31,10.573,31   C13.23,31,15,27.511,15,24.024z"/>
	<path fill="#8D6E63" d="M39.733,19.063c-1.938-0.418-4.017,1.256-5.679,4.602c-2.077,3.768-0.831,6.695,1.523,7.254   c2.355,0.559,4.709-1.814,5.955-5.3C42.641,22.968,41.672,19.48,39.733,19.063z"/>
</g>
<g>
	<path fill="#6D4C41" d="M18.209,31.756c0.696-0.721,1.313-1.449,1.856-2.093c1.437-1.7,2.299-2.663,3.303-2.663   c1.037,0,1.667,0.787,2.963,2.718c3.355,5.751,8.543,4.157,9.668,6.292c0-2.892-4.351-2.616-6.315-5.092   C27.439,28.303,26.457,25,23.369,25c-2.667,0-4.07,2.752-6.597,5.365C14.247,32.981,12,33.394,12,36.422   c0,0.043,0.011,0.09,0.012,0.135C12.276,34.24,16.332,33.606,18.209,31.756z"/>
	<path fill="#6D4C41" d="M31.111,9c1.281,0.093,3.677,3.26,3.728,6.004C34.945,14.316,35,13.613,35,12.918   C35,9.021,32.646,7,31.123,7C27.8,7,26,10.608,26,13.062c0,0.561,0.059,1.319,0.188,2.144c0-0.006-0.001-0.012-0.001-0.012   C26.188,13.219,28.5,9.031,31.111,9z"/>
	<path fill="#6D4C41" d="M19.033,9c0.686,0,3.913,1.849,3.871,5.328C22.972,13.619,23,12.891,23,12.172C23,9.375,21.017,7,19.033,7   C15.525,7,14,10.354,14,13.15c0,0.569,0.13,1.293,0.369,2.055c-0.012-0.068-0.025-0.136-0.025-0.205   C14.344,13.564,16.634,9,19.033,9z"/>
	<path fill="#6D4C41" d="M10.722,21c2.84,0,4.219,4.09,4.219,4.09C14.977,24.736,15,24.381,15,24.024C15,21.511,12.787,19,10.722,19   C8.656,19,6,22.069,6,25.418c0,0.572,0.118,1.218,0.338,1.861c-0.013-0.063-0.025-0.127-0.025-0.195   C6.313,24.673,9.048,21,10.722,21z"/>
	<path fill="#6D4C41" d="M39.733,19.063C39.537,19.021,39.34,19,39.143,19c-1.764,0-3.594,1.656-5.088,4.664   c-0.787,1.428-1.096,2.732-1.049,3.836c0.477-1.714,3.8-6.555,6.137-6.5c0.057,0.002,0.113,0.006,0.146,0.01   c1.669,0.432,1.727,4.992,1.143,6.934c0.422-0.693,0.798-1.472,1.103-2.325C42.641,22.968,41.672,19.48,39.733,19.063z"/>
</g>
</svg>