<?xml version="1.0" encoding="utf-8"?><!-- Generator: Adobe Illustrator 15.0.0, SVG Export Plug-In . SVG Version: 6.00 Build 0)  --><!DOCTYPE svg PUBLIC "-//W3C//DTD SVG 1.1//EN" "http://www.w3.org/Graphics/SVG/1.1/DTD/svg11.dtd"><svg xmlns="http://www.w3.org/2000/svg" xmlns:xlink="http://www.w3.org/1999/xlink" version="1.1" x="0px" y="0px" width="500" height="500" viewBox="0 0 48 48" enable-background="new 0 0 48 48" xml:space="preserve">
<g>
	<path fill="#BBDEFB" d="M33,41c0,0.553-0.447,1-1,1H16c-0.552,0-1-0.447-1-1v-5c0-0.553,0.448-1,1-1h16c0.553,0,1,0.447,1,1V41z"/>
	<path fill="#BBDEFB" d="M36.937,6H11.063C6.747,9.668,4,15.128,4,21.238c0,11.047,8.954,20,20,20s20-8.953,20-20   C44,15.128,41.254,9.668,36.937,6z"/>
</g>
<path fill="#1E88E5" d="M40.066,13.186C35.859,15.814,29.934,16.279,25,16c-5.74-0.325-9.16-2.896-14.944-3.219  c-0.657-0.037-1.3-0.014-1.937,0.035C6.753,15.383,6,18.262,6,21.238c0,9.926,8.075,18,18,18c9.926,0,18-8.074,18-18  C42,18.402,41.311,15.658,40.066,13.186z"/>
<g>
	<path fill="#FFEB3B" d="M21.39,24c-3.5,0-6.223,2.722-6.223,2.722L14,27.502l1.167,0.834C16.732,29.452,18.674,31,21.39,31   c2.722,0,6.61-2.723,6.61-3.888C28,25.944,24.111,24,21.39,24z"/>
	<path fill="#FFEB3B" d="M11.937,24c0.438,0.438,0.875,2.481,0.875,3.5c0,1.012-0.438,3.063-0.875,3.5   c1.313-0.438,2.713-1.867,3.049-2.568c0.005,0.003,0.514-0.93,0.514-0.93L15,26.625C15,26.625,14.125,24.875,11.937,24z"/>
</g>
<circle fill="#37474F" cx="24.538" cy="26.232" r="0.77"/>
<circle fill="#90CAF9" cx="33" cy="20.002" r="2"/>
<g>
	<circle fill="#64B5F6" cx="31" cy="24.002" r="1"/>
	<circle fill="#64B5F6" cx="27.5" cy="19.5" r="1.5"/>
</g>
</svg>