<?xml version="1.0" encoding="iso-8859-1"?><!-- Generator: Adobe Illustrator 19.1.1, SVG Export Plug-In . SVG Version: 6.00 Build 0)  --><svg xmlns="http://www.w3.org/2000/svg" xmlns:xlink="http://www.w3.org/1999/xlink" version="1.1" id="Layer_1" x="0px" y="0px" viewBox="0 0 48 48" enable-background="new 0 0 48 48" xml:space="preserve" width="500" height="500">
<path fill="#FFC107" d="M42,24.5c0-1.375-1.125-2.5-2.5-2.5h-2c1.375,0,2.5-1.125,2.5-2.5S38.875,17,37.5,17h-4  c1.375,0,2.5-1.125,2.5-2.5S34.875,12,33.5,12h-3c1.375,0,2.5-1.125,2.5-2.5S31.875,7,30.5,7h-13C16.125,7,15,8.125,15,9.5  s1.125,2.5,2.5,2.5h-3c-1.375,0-2.5,1.125-2.5,2.5s1.125,2.5,2.5,2.5h-4C9.125,17,8,18.125,8,19.5S9.125,22,10.5,22h-2  C7.125,22,6,23.125,6,24.5S7.125,27,8.5,27h2C9.125,27,8,28.125,8,29.5S9.125,32,10.5,32h4c-1.375,0-2.5,1.125-2.5,2.5  s1.125,2.5,2.5,2.5h4c-1.375,0-2.5,1.125-2.5,2.5s1.125,2.5,2.5,2.5h11c1.375,0,2.5-1.125,2.5-2.5S30.875,37,29.5,37h4  c1.375,0,2.5-1.125,2.5-2.5S34.875,32,33.5,32h4c1.375,0,2.5-1.125,2.5-2.5S38.875,27,37.5,27h2C40.875,27,42,25.875,42,24.5z"/>
<circle fill="#5D4037" cx="24" cy="32" r="3"/>
<path fill="#FF9800" d="M25,12h-7.5c-1.204,0-2.216-0.862-2.449-2H25c0.552,0,1,0.448,1,1C26,11.552,25.552,12,25,12z M28,10  c-0.552,0-1,0.448-1,1c0,0.552,0.448,1,1,1h2.5c1.204,0,2.216-0.862,2.449-2H28z M19,16c0-0.552-0.448-1-1-1h-5.949  c0.233,1.138,1.245,2,2.449,2H18C18.552,17,19,16.552,19,16z M21,15c-0.552,0-1,0.448-1,1c0,0.552,0.448,1,1,1h12.5  c1.204,0,2.216-0.862,2.449-2H21z M24,21c0-0.552-0.448-1-1-1H8.051c0.233,1.138,1.245,2,2.449,2H23C23.552,22,24,21.552,24,21z   M26,20c-0.552,0-1,0.448-1,1c0,0.552,0.448,1,1,1h11.5c1.204,0,2.216-0.862,2.449-2H26z M30,26c0-0.552-0.448-1-1-1H6.051  c0.233,1.138,1.245,2,2.449,2h2H29C29.552,27,30,26.552,30,26z M32,25c-0.552,0-1,0.448-1,1c0,0.552,0.448,1,1,1h5.5h2  c1.204,0,2.216-0.862,2.449-2H32z M24,40c-0.552,0-1,0.448-1,1c0,0.552,0.448,1,1,1h5.5c1.204,0,2.216-0.862,2.449-2H24z M22,41  c0-0.552-0.448-1-1-1h-4.949c0.233,1.138,1.245,2,2.449,2H21C21.552,42,22,41.552,22,41z M22,36c0-0.552-0.448-1-1-1h-8.949  c0.233,1.138,1.245,2,2.449,2h4H21C21.552,37,22,36.552,22,36z M27,35c-0.552,0-1,0.448-1,1c0,0.552,0.448,1,1,1h2.5h4  c1.204,0,2.216-0.862,2.449-2H27z M20,31c0-0.552-0.448-1-1-1H8.051c0.233,1.138,1.245,2,2.449,2h4H19C19.552,32,20,31.552,20,31z   M29,30c-0.552,0-1,0.448-1,1c0,0.552,0.448,1,1,1h4.5h4c1.204,0,2.216-0.862,2.449-2H29z"/>
</svg>