<?xml version="1.0" encoding="utf-8"?><!-- Generator: Adobe Illustrator 15.0.0, SVG Export Plug-In . SVG Version: 6.00 Build 0)  --><!DOCTYPE svg PUBLIC "-//W3C//DTD SVG 1.1//EN" "http://www.w3.org/Graphics/SVG/1.1/DTD/svg11.dtd"><svg xmlns="http://www.w3.org/2000/svg" xmlns:xlink="http://www.w3.org/1999/xlink" version="1.1" x="0px" y="0px" width="500" height="500" viewBox="0 0 48 48" enable-background="new 0 0 48 48" xml:space="preserve">
<path fill="#311B92" d="M32.56,17.014c2.075,0,2.987-1.242,2.792-1.624c-0.191-0.379-0.858,0.053-2.357,0.053  C30.84,15.442,30,13.457,30,12c0-1,0.861-3,4-3c3.175,0,5,4.158,5,7c1-4-2-7-2-7s-2.975-2.966-7,0  c-1.188,0.875-1.75,1.906-1.986,2.654C28.009,11.77,28,11.883,28,12C28,14.67,29.784,17.014,32.56,17.014z"/>
<g>
	<path fill="#673AB7" d="M30,9c4.025-2.966,7,0,7,0s3,3,2,7c0,3.587-1.982,5.561-4.942,5.931c0.009,0.004,0.016,0.011,0.024,0.015   c3.372-0.316,7.252-1.738,7.21-10.193c-0.001-0.142-0.021-0.27-0.043-0.396c0.229,0.637,0.411,1.332,0.539,2.084   C40.948,8.43,37.659,6,34.132,6c-3.841,0-5.974,2.448-6.118,5.653C28.25,10.905,28.813,9.875,30,9z"/>
	<path fill="#673AB7" d="M18,15C6,15,6.969,33,6.969,33S7,36,8,42h4c-1-3-2.031-9-2.031-9S6,15,18,15z"/>
</g>
<path fill="#FF80AB" d="M41.249,11.355c0.021,0.127,0.042,0.255,0.043,0.396c0.042,8.457-3.839,9.877-7.212,10.193  C29.417,21.945,24.75,15,18,15C6,15,9.969,33,9.969,33S11,39,12,42l8,0.002c-2-4-6.513-20,0-20c2.487,0,6.072,4.998,12,4.998  c8.01,0,10-6.404,10-10.975C41.999,14.217,41.723,12.668,41.249,11.355z"/>
<g>
	<path fill="#C51162" d="M25.758,22.922c-0.275,0.42-0.944,0.461-1.507,0.097c-0.559-0.361-0.788-0.995-0.515-1.412   c0.271-0.419,0.942-0.46,1.501-0.095C25.798,21.871,26.026,22.504,25.758,22.922z"/>
	<path fill="#C51162" d="M19.987,41.944c-0.852,0.265-1.814-0.433-2.174-1.567c-0.357-1.127,0.044-2.256,0.89-2.517   c0.843-0.27,1.81,0.433,2.163,1.564C21.229,40.55,20.828,41.675,19.987,41.944z"/>
	<path fill="#C51162" d="M26.506,20.504c0.248-0.43,0.864-0.547,1.379-0.254c0.516,0.289,0.737,0.881,0.491,1.314   c-0.248,0.432-0.863,0.548-1.378,0.256C26.482,21.524,26.261,20.937,26.506,20.504z"/>
	
		<ellipse transform="matrix(0.9611 0.2762 -0.2762 0.9611 7.8815 -6.7874)" fill="#C51162" cx="28.042" cy="24.592" rx="0.902" ry="0.733"/>
	<path fill="#C51162" d="M30.025,22.48c0.109-0.389,0.594-0.593,1.068-0.457c0.479,0.14,0.775,0.568,0.66,0.959   c-0.112,0.39-0.59,0.597-1.066,0.458C30.205,23.301,29.912,22.875,30.025,22.48z"/>
	<path fill="#C51162" d="M31.145,26.214c-0.442-0.035-0.77-0.347-0.743-0.706c0.026-0.357,0.401-0.622,0.841-0.59   c0.439,0.033,0.766,0.35,0.74,0.709C31.956,25.982,31.577,26.244,31.145,26.214z"/>
	<path fill="#C51162" d="M34.02,23.964c-0.442-0.035-0.77-0.347-0.743-0.706c0.026-0.357,0.401-0.622,0.841-0.59   c0.439,0.033,0.766,0.35,0.74,0.709C34.831,23.732,34.452,23.994,34.02,23.964z"/>
	<path fill="#C51162" d="M34.282,26.005c-0.424,0.112-0.843-0.064-0.937-0.411c-0.094-0.349,0.166-0.719,0.59-0.84   c0.419-0.118,0.838,0.067,0.937,0.414C34.974,25.51,34.705,25.885,34.282,26.005z"/>
	<path fill="#C51162" d="M36.181,22.613c-0.083-0.297,0.146-0.62,0.509-0.722c0.367-0.104,0.734,0.055,0.815,0.354   c0.086,0.296-0.147,0.624-0.509,0.727C36.628,23.072,36.267,22.916,36.181,22.613z"/>
	<path fill="#C51162" d="M37.102,24.868c-0.361,0.102-0.729-0.061-0.812-0.355c-0.079-0.298,0.144-0.622,0.513-0.729   c0.363-0.101,0.728,0.062,0.813,0.358C37.697,24.438,37.468,24.763,37.102,24.868z"/>
	<path fill="#C51162" d="M38.387,21.584c-0.122-0.161-0.054-0.41,0.143-0.559s0.456-0.135,0.578,0.025   c0.115,0.163,0.056,0.413-0.143,0.557C38.765,21.757,38.511,21.746,38.387,21.584z"/>
	<path fill="#C51162" d="M39.236,23.052c-0.194,0.146-0.453,0.134-0.572-0.028c-0.121-0.157-0.06-0.409,0.142-0.556   c0.195-0.146,0.457-0.136,0.57,0.023C39.501,22.657,39.441,22.905,39.236,23.052z"/>
	<path fill="#C51162" d="M40.544,21.266c-0.159,0.186-0.414,0.228-0.57,0.097c-0.146-0.136-0.14-0.392,0.026-0.575   c0.157-0.189,0.417-0.229,0.569-0.095C40.715,20.824,40.709,21.078,40.544,21.266z"/>
	<path fill="#C51162" d="M17.798,36.637c-0.754,0.158-1.524-0.518-1.743-1.523c-0.216-0.998,0.22-1.934,0.968-2.09   c0.746-0.163,1.521,0.517,1.733,1.52C18.978,35.539,18.542,36.473,17.798,36.637z"/>
	<path fill="#C51162" d="M14.911,41.9c-0.808,0.17-1.634-0.556-1.868-1.633c-0.232-1.07,0.236-2.074,1.038-2.241   c0.8-0.175,1.63,0.554,1.858,1.628C16.175,40.723,15.708,41.725,14.911,41.9z"/>
	<path fill="#C51162" d="M13.181,36.834c-0.764,0.063-1.441-0.701-1.533-1.72c-0.09-1.013,0.456-1.884,1.214-1.944   c0.756-0.07,1.437,0.697,1.524,1.713C14.481,35.893,13.936,36.762,13.181,36.834z"/>
	<path fill="#C51162" d="M11.732,31.413c-0.711-0.002-1.277-0.761-1.283-1.711c-0.003-0.942,0.57-1.706,1.276-1.702   C12.431,27.995,13,28.759,13,29.703C13.009,30.646,12.437,31.406,11.732,31.413z"/>
	<path fill="#C51162" d="M15.962,31.99c-0.704,0.1-1.373-0.571-1.513-1.511c-0.137-0.933,0.321-1.771,1.021-1.866   c0.697-0.105,1.369,0.57,1.503,1.504C17.117,31.049,16.658,31.884,15.962,31.99z"/>
	<path fill="#C51162" d="M11.581,26.117c-0.647-0.101-1.055-0.871-0.926-1.736c0.13-0.857,0.759-1.472,1.4-1.369   c0.643,0.096,1.053,0.871,0.919,1.73C12.851,25.6,12.223,26.211,11.581,26.117z"/>
	<path fill="#C51162" d="M12.189,21.607c-0.507-0.303-0.589-1.086-0.19-1.767c0.398-0.675,1.131-0.978,1.634-0.675   c0.505,0.297,0.587,1.084,0.187,1.759C13.427,21.602,12.695,21.9,12.189,21.607z"/>
	<path fill="#C51162" d="M15.573,22.007c-0.395-0.474-0.197-1.253,0.44-1.755c0.634-0.499,1.468-0.521,1.858-0.05   c0.394,0.47,0.195,1.252-0.441,1.749C16.801,22.455,15.97,22.474,15.573,22.007z"/>
	<path fill="#C51162" d="M14.485,18.199c-0.232-0.453,0.065-1.078,0.665-1.408c0.597-0.328,1.268-0.229,1.498,0.219   c0.232,0.449-0.066,1.076-0.665,1.402C15.389,18.744,14.719,18.644,14.485,18.199z"/>
	<path fill="#C51162" d="M18.794,16.916c0.118-0.494,0.75-0.777,1.42-0.639c0.667,0.139,1.113,0.65,0.997,1.141   c-0.116,0.492-0.749,0.773-1.417,0.633C19.127,17.918,18.683,17.406,18.794,16.916z"/>
	<path fill="#C51162" d="M23.158,18.209c0.208-0.393,0.803-0.494,1.34-0.231c0.534,0.263,0.799,0.792,0.596,1.181   c-0.206,0.391-0.803,0.492-1.337,0.229C23.222,19.128,22.958,18.598,23.158,18.209z"/>
	<path fill="#C51162" d="M19.735,19.934c0.105-0.533,0.752-0.84,1.457-0.693c0.699,0.146,1.182,0.695,1.079,1.223   c-0.103,0.531-0.752,0.838-1.453,0.688C20.118,21.01,19.638,20.461,19.735,19.934z"/>
	<path fill="#C51162" d="M15.054,26.961c-0.65-0.074-1.089-0.826-0.996-1.696c0.094-0.862,0.698-1.502,1.343-1.426   c0.646,0.069,1.087,0.827,0.99,1.691C16.302,26.393,15.699,27.029,15.054,26.961z"/>
</g>
</svg>